<svg width="50" height="50" viewBox="0 0 50 50" fill="none" xmlns="http://www.w3.org/2000/svg">
<g clip-path="url(#clip0_1_2)">
<rect width="50" height="50" rx="5" fill="url(#paint0_linear_1_2)" style="mix-blend-mode:multiply"/>
<g filter="url(#filter0_f_1_2)">
<path d="M16.3144 19.3315C15.5716 18.8511 15.0787 18.0674 14.9675 17.1899L14.749 15.4678C14.6383 14.5946 14.1449 13.816 13.4026 13.3431L13.0216 13.1004C12.3205 12.6537 11.9276 11.8528 12.0037 11.0249C12.1452 9.48356 13.7811 8.55652 15.1762 9.22707L21.3206 12.1803C21.8602 12.4397 22.3099 12.8546 22.6118 13.3717L23.963 15.6863C24.1385 15.9868 24.3649 16.2545 24.6321 16.4774L25.4844 17.1883C25.7102 17.3768 25.9072 17.5974 26.0689 17.8431L27.0064 19.268L27.9516 20.3929C28.0857 20.5525 28.2361 20.6977 28.4003 20.8262L28.9731 21.2742C29.1151 21.3852 29.2668 21.4832 29.4264 21.5671L30.7152 22.2439L31.2806 22.5098C32.0344 22.8643 32.6068 23.5161 32.8609 24.3094L32.8954 24.417L33.6077 26.2599L34.1292 27.8878C34.3358 28.533 34.7548 29.0893 35.3179 29.466L35.5145 29.5975C35.8206 29.8024 36.0865 30.0618 36.2986 30.363L42.4821 39.1388C43.1285 40.0563 43.2088 41.2579 42.6901 42.2532L42.3116 42.9796C41.9973 43.5828 41.1854 43.7029 40.7098 43.2166L28.7318 30.9671C28.5475 30.7786 28.3888 30.5666 28.2599 30.3366L25.7397 25.8407C25.501 25.4148 25.162 25.0537 24.752 24.7885L16.3144 19.3315Z" fill="#B67754"/>
</g>
<path d="M14.1079 18.9691C13.3651 18.4887 12.8722 17.705 12.761 16.8275L12.5425 15.1053C12.4318 14.2322 11.9384 13.4536 11.1961 12.9807L10.8151 12.7379C10.114 12.2913 9.72114 11.4903 9.79717 10.6625C9.93875 9.12113 11.5746 8.1941 12.9697 8.86464L19.1141 11.8179C19.6537 12.0773 20.1034 12.4922 20.4053 13.0093L21.7565 15.3238C21.932 15.6244 22.1584 15.8921 22.4256 16.115L23.2779 16.8259C23.5037 17.0143 23.7007 17.235 23.8624 17.4807L24.7999 18.9055L25.7451 20.0305C25.8792 20.1901 26.0296 20.3353 26.1938 20.4637L26.7666 20.9117C26.9086 21.0228 27.0603 21.1208 27.2199 21.2046L28.5087 21.8814L29.0741 22.1473C29.8279 22.5018 30.4003 23.1537 30.6544 23.947L30.6889 24.0546L31.4012 25.8975L31.9227 27.5254C32.1293 28.1706 32.5483 28.7269 33.1114 29.1036L33.308 29.2351C33.6141 29.4399 33.88 29.6994 34.0921 30.0005L40.2756 38.7764C40.922 39.6939 41.0023 40.8955 40.4836 41.8908L40.1051 42.6171C39.7908 43.2204 38.9789 43.3405 38.5033 42.8541L26.5253 30.6047C26.341 30.4162 26.1823 30.2042 26.0534 29.9742L23.5332 25.4783C23.2945 25.0524 22.9555 24.6912 22.5455 24.4261L14.1079 18.9691Z" fill="#DD956D"/>
<path d="M14.1079 18.9691C13.3651 18.4887 12.8722 17.705 12.761 16.8275L12.5425 15.1053C12.4318 14.2322 11.9384 13.4536 11.1961 12.9807L10.8151 12.7379C10.114 12.2913 9.72114 11.4903 9.79717 10.6625V10.6625C9.93875 9.12113 11.5746 8.1941 12.9697 8.86464L19.1141 11.8179C19.6537 12.0773 20.1034 12.4922 20.4053 13.0093L21.7565 15.3238C21.932 15.6244 22.1584 15.8921 22.4256 16.115L23.2779 16.8259C23.5037 17.0143 23.7007 17.235 23.8624 17.4807L24.7999 18.9055L25.7451 20.0305C25.8792 20.1901 26.0296 20.3353 26.1938 20.4637L26.7666 20.9117C26.9086 21.0228 27.0603 21.1208 27.2199 21.2046L28.5087 21.8814L29.0741 22.1473C29.8279 22.5018 30.4003 23.1537 30.6544 23.947L30.6889 24.0546L31.4012 25.8975L31.9227 27.5254C32.1293 28.1706 32.5483 28.7269 33.1114 29.1036L33.308 29.2351C33.6141 29.4399 33.88 29.6994 34.0921 30.0005L40.2756 38.7764C40.922 39.6939 41.0023 40.8955 40.4836 41.8908L40.1051 42.6171C39.7908 43.2204 38.9789 43.3405 38.5033 42.8541L26.5253 30.6047C26.341 30.4162 26.1823 30.2042 26.0534 29.9742L23.5332 25.4783C23.2945 25.0524 22.9555 24.6912 22.5455 24.4261L14.1079 18.9691Z" fill="#DD956D"/>
<g filter="url(#filter1_i_1_2)">
<path d="M30.7509 24.4238L24.8856 27.9837L24.2154 26.648L30.6953 23.9387L30.7509 24.4238Z" fill="#DD956D"/>
<path d="M30.7509 24.4238L24.8856 27.9837L24.2154 26.648L30.6953 23.9387L30.7509 24.4238Z" fill="#DD956D"/>
</g>
<path d="M14.425 19.1647L20.7718 13.1318L21.7474 15.1726L16.3186 20.7617L14.425 19.1647Z" fill="#56270D"/>
<path d="M17.5803 21.1506L22.7295 15.9885L23.51 16.7875L23.9002 17.187L24.4531 18.0467L19.6078 22.571L18.594 21.8608L17.5803 21.1506Z" fill="#56270D"/>
<g filter="url(#filter2_i_1_2)">
<path d="M23.6345 25.6545L28.1466 21.637L29.398 22.2957L23.7827 26.1321L23.6345 25.6545Z" fill="#DD956D"/>
<path d="M23.6345 25.6545L28.1466 21.637L29.398 22.2957L23.7827 26.1321L23.6345 25.6545Z" fill="#DD956D"/>
</g>
<g filter="url(#filter3_i_1_2)">
<path d="M33.4555 28.9596L28.474 32.2585L27.7001 31.4516L33.4029 28.5013L33.4555 28.9596Z" fill="#DD956D"/>
<path d="M33.4555 28.9596L28.474 32.2585L27.7001 31.4516L33.4029 28.5013L33.4555 28.9596Z" fill="#DD956D"/>
</g>
<g filter="url(#filter4_i_1_2)">
<path d="M26.0501 30.0654L31.2421 24.8646L31.5385 25.8197L31.8348 26.7748L26.2194 30.6111L26.0501 30.0654Z" fill="#DD956D"/>
<path d="M26.0501 30.0654L31.2421 24.8646L31.5385 25.8197L31.8348 26.7748L26.2194 30.6111L26.0501 30.0654Z" fill="#DD956D"/>
</g>
<g filter="url(#filter5_bd_1_2)">
<rect x="-5" y="11.9809" width="1" height="1" rx="0.5" transform="rotate(-17.2377 -5 11.9809)" fill="#070707"/>
</g>
<g filter="url(#filter6_f_1_2)">
<path d="M34.1548 19.2555C34.9122 18.7986 35.4293 18.0307 35.568 17.157L35.8401 15.4426C35.9781 14.5733 36.4957 13.8105 37.2524 13.3611L37.6408 13.1303C38.3555 12.7058 38.7732 11.9176 38.7231 11.0878V11.0878C38.6297 9.54271 37.0237 8.56499 35.6083 9.19159L29.3746 11.9513C28.8271 12.1937 28.3647 12.5944 28.0468 13.1017L26.6238 15.3729C26.4391 15.6678 26.2044 15.9283 25.9303 16.1428L25.0563 16.8267C24.8246 17.008 24.6209 17.2223 24.4516 17.4629L23.47 18.8577L22.4901 19.9526C22.3511 20.1079 22.1962 20.2484 22.0281 20.3716L21.4415 20.8015C21.2961 20.908 21.1414 21.0013 20.9793 21.0801L19.6699 21.7162L19.0965 21.9643C18.332 22.2951 17.7395 22.9288 17.4607 23.7137L17.4229 23.8201L16.6533 25.6399L16.0812 27.2507C15.8545 27.8891 15.4183 28.432 14.8437 28.791L14.6431 28.9163C14.3307 29.1114 14.0569 29.3625 13.8354 29.6568L7.38062 38.2351C6.70581 39.1319 6.58802 40.3304 7.07532 41.3414L7.43094 42.0793C7.72629 42.692 8.534 42.8375 9.02455 42.3662L21.3796 30.4973C21.5698 30.3146 21.735 30.1077 21.8711 29.8818L24.5305 25.4669C24.7824 25.0487 25.1326 24.6983 25.5506 24.4461L34.1548 19.2555Z" fill="#B67754"/>
</g>
<path d="M36.3715 18.9622C37.1289 18.5053 37.6461 17.7374 37.7847 16.8638L38.0569 15.1493C38.1949 14.2801 38.7124 13.5173 39.4691 13.0678L39.8575 12.8371C40.5723 12.4126 40.9899 11.6243 40.9398 10.7945V10.7945C40.8465 9.24947 39.2405 8.27175 37.8251 8.89835L31.5914 11.6581C31.0439 11.9005 30.5814 12.3011 30.2635 12.8085L28.8406 15.0797C28.6558 15.3746 28.4211 15.6351 28.1471 15.8496L27.273 16.5335C27.0414 16.7147 26.8376 16.9291 26.6683 17.1696L25.6868 18.5645L24.7069 19.6594C24.5678 19.8147 24.413 19.9551 24.2448 20.0784L23.6583 20.5082C23.5129 20.6148 23.3582 20.708 23.196 20.7868L21.8867 21.423L21.3132 21.6711C20.5488 22.0018 19.9562 22.6355 19.6774 23.4204L19.6396 23.5269L18.87 25.3466L18.298 26.9574C18.0712 27.5959 17.635 28.1388 17.0604 28.4977L16.8599 28.623C16.5474 28.8182 16.2736 29.0692 16.0522 29.3636L9.59738 37.9419C8.92257 38.8387 8.80477 40.0372 9.29207 41.0482L9.6477 41.786C9.94304 42.3988 10.7508 42.5442 11.2413 42.073L23.5964 30.204C23.7865 30.0213 23.9518 29.8144 24.0878 29.5885L26.7473 25.1736C26.9992 24.7554 27.3494 24.405 27.7674 24.1528L36.3715 18.9622Z" fill="#DD956D"/>
<path d="M36.3715 18.9622C37.1289 18.5053 37.6461 17.7374 37.7847 16.8638L38.0569 15.1493C38.1949 14.2801 38.7124 13.5173 39.4691 13.0678L39.8575 12.8371C40.5723 12.4126 40.9899 11.6243 40.9398 10.7945V10.7945C40.8465 9.24947 39.2405 8.27175 37.8251 8.89835L31.5914 11.6581C31.0439 11.9005 30.5814 12.3011 30.2635 12.8085L28.8406 15.0797C28.6558 15.3746 28.4211 15.6351 28.1471 15.8496L27.273 16.5335C27.0414 16.7147 26.8376 16.9291 26.6683 17.1696L25.6868 18.5645L24.7069 19.6594C24.5678 19.8147 24.413 19.9551 24.2448 20.0784L23.6583 20.5082C23.5129 20.6148 23.3582 20.708 23.196 20.7868L21.8867 21.423L21.3132 21.6711C20.5488 22.0018 19.9562 22.6355 19.6774 23.4204L19.6396 23.5269L18.87 25.3466L18.298 26.9574C18.0712 27.5959 17.635 28.1388 17.0604 28.4977L16.8599 28.623C16.5474 28.8182 16.2736 29.0692 16.0522 29.3636L9.59738 37.9419C8.92257 38.8387 8.80477 40.0372 9.29207 41.0482L9.6477 41.786C9.94304 42.3988 10.7508 42.5442 11.2413 42.073L23.5964 30.204C23.7865 30.0213 23.9518 29.8144 24.0878 29.5885L26.7473 25.1736C26.9992 24.7554 27.3494 24.405 27.7674 24.1528L36.3715 18.9622Z" fill="#DD956D"/>
<g filter="url(#filter7_i_1_2)">
<path d="M19.5661 23.8941L25.3173 27.6356L26.0289 26.3214L19.6369 23.411L19.5661 23.8941Z" fill="#DD956D"/>
<path d="M19.5661 23.8941L25.3173 27.6356L26.0289 26.3214L19.6369 23.411L19.5661 23.8941Z" fill="#DD956D"/>
</g>
<path d="M36.0484 19.1478L29.8933 12.9195L28.8544 14.9288L34.1058 20.6849L36.0484 19.1478Z" fill="#56270D"/>
<path d="M32.8326 21.0342L27.8473 15.7137L27.0422 16.4878L26.6397 16.8749L26.0602 17.7169L30.7617 22.3905L31.7972 21.7123L32.8326 21.0342Z" fill="#56270D"/>
<g filter="url(#filter8_i_1_2)">
<path d="M26.6406 25.3466L22.2563 21.19L20.9849 21.8093L26.4775 25.8193L26.6406 25.3466Z" fill="#DD956D"/>
<path d="M26.6406 25.3466L22.2563 21.19L20.9849 21.8093L26.4775 25.8193L26.6406 25.3466Z" fill="#DD956D"/>
</g>
<g filter="url(#filter9_i_1_2)">
<path d="M16.7211 28.3431L21.597 31.7961L22.3957 31.0137L16.7879 27.8867L16.7211 28.3431Z" fill="#DD956D"/>
<path d="M16.7211 28.3431L21.597 31.7961L22.3957 31.0137L16.7879 27.8867L16.7211 28.3431Z" fill="#DD956D"/>
</g>
<g filter="url(#filter10_i_1_2)">
<path d="M24.0883 29.6798L19.0614 24.3193L18.7353 25.2646L18.4093 26.21L23.9019 30.22L24.0883 29.6798Z" fill="#DD956D"/>
<path d="M24.0883 29.6798L19.0614 24.3193L18.7353 25.2646L18.4093 26.21L23.9019 30.22L24.0883 29.6798Z" fill="#DD956D"/>
</g>
</g>
<defs>
<filter id="filter0_f_1_2" x="7.99434" y="5.00589" width="39.0354" height="42.5117" filterUnits="userSpaceOnUse" color-interpolation-filters="sRGB">
<feFlood flood-opacity="0" result="BackgroundImageFix"/>
<feBlend mode="normal" in="SourceGraphic" in2="BackgroundImageFix" result="shape"/>
<feGaussianBlur stdDeviation="2" result="effect1_foregroundBlur_1_2"/>
</filter>
<filter id="filter1_i_1_2" x="24.2154" y="23.9388" width="6.53554" height="8.04495" filterUnits="userSpaceOnUse" color-interpolation-filters="sRGB">
<feFlood flood-opacity="0" result="BackgroundImageFix"/>
<feBlend mode="normal" in="SourceGraphic" in2="BackgroundImageFix" result="shape"/>
<feColorMatrix in="SourceAlpha" type="matrix" values="0 0 0 0 0 0 0 0 0 0 0 0 0 0 0 0 0 0 127 0" result="hardAlpha"/>
<feOffset dy="4"/>
<feGaussianBlur stdDeviation="2"/>
<feComposite in2="hardAlpha" operator="arithmetic" k2="-1" k3="1"/>
<feColorMatrix type="matrix" values="0 0 0 0 0 0 0 0 0 0 0 0 0 0 0 0 0 0 0.25 0"/>
<feBlend mode="normal" in2="shape" result="effect1_innerShadow_1_2"/>
</filter>
<filter id="filter2_i_1_2" x="23.6345" y="21.637" width="5.76354" height="8.49512" filterUnits="userSpaceOnUse" color-interpolation-filters="sRGB">
<feFlood flood-opacity="0" result="BackgroundImageFix"/>
<feBlend mode="normal" in="SourceGraphic" in2="BackgroundImageFix" result="shape"/>
<feColorMatrix in="SourceAlpha" type="matrix" values="0 0 0 0 0 0 0 0 0 0 0 0 0 0 0 0 0 0 127 0" result="hardAlpha"/>
<feOffset dy="4"/>
<feGaussianBlur stdDeviation="2"/>
<feComposite in2="hardAlpha" operator="arithmetic" k2="-1" k3="1"/>
<feColorMatrix type="matrix" values="0 0 0 0 0 0 0 0 0 0 0 0 0 0 0 0 0 0 0.25 0"/>
<feBlend mode="normal" in2="shape" result="effect1_innerShadow_1_2"/>
</filter>
<filter id="filter3_i_1_2" x="27.7001" y="28.5013" width="5.75539" height="7.75714" filterUnits="userSpaceOnUse" color-interpolation-filters="sRGB">
<feFlood flood-opacity="0" result="BackgroundImageFix"/>
<feBlend mode="normal" in="SourceGraphic" in2="BackgroundImageFix" result="shape"/>
<feColorMatrix in="SourceAlpha" type="matrix" values="0 0 0 0 0 0 0 0 0 0 0 0 0 0 0 0 0 0 127 0" result="hardAlpha"/>
<feOffset dy="4"/>
<feGaussianBlur stdDeviation="2"/>
<feComposite in2="hardAlpha" operator="arithmetic" k2="-1" k3="1"/>
<feColorMatrix type="matrix" values="0 0 0 0 0 0 0 0 0 0 0 0 0 0 0 0 0 0 0.25 0"/>
<feBlend mode="normal" in2="shape" result="effect1_innerShadow_1_2"/>
</filter>
<filter id="filter4_i_1_2" x="26.0501" y="24.8646" width="5.78471" height="9.74652" filterUnits="userSpaceOnUse" color-interpolation-filters="sRGB">
<feFlood flood-opacity="0" result="BackgroundImageFix"/>
<feBlend mode="normal" in="SourceGraphic" in2="BackgroundImageFix" result="shape"/>
<feColorMatrix in="SourceAlpha" type="matrix" values="0 0 0 0 0 0 0 0 0 0 0 0 0 0 0 0 0 0 127 0" result="hardAlpha"/>
<feOffset dy="4"/>
<feGaussianBlur stdDeviation="2"/>
<feComposite in2="hardAlpha" operator="arithmetic" k2="-1" k3="1"/>
<feColorMatrix type="matrix" values="0 0 0 0 0 0 0 0 0 0 0 0 0 0 0 0 0 0 0.25 0"/>
<feBlend mode="normal" in2="shape" result="effect1_innerShadow_1_2"/>
</filter>
<filter id="filter5_bd_1_2" x="-8.87442" y="7.81012" width="9.00027" height="13.0002" filterUnits="userSpaceOnUse" color-interpolation-filters="sRGB">
<feFlood flood-opacity="0" result="BackgroundImageFix"/>
<feGaussianBlur in="BackgroundImageFix" stdDeviation="2"/>
<feComposite in2="SourceAlpha" operator="in" result="effect1_backgroundBlur_1_2"/>
<feColorMatrix in="SourceAlpha" type="matrix" values="0 0 0 0 0 0 0 0 0 0 0 0 0 0 0 0 0 0 127 0" result="hardAlpha"/>
<feOffset dy="4"/>
<feGaussianBlur stdDeviation="2"/>
<feComposite in2="hardAlpha" operator="out"/>
<feColorMatrix type="matrix" values="0 0 0 0 0 0 0 0 0 0 0 0 0 0 0 0 0 0 0.25 0"/>
<feBlend mode="normal" in2="effect1_backgroundBlur_1_2" result="effect2_dropShadow_1_2"/>
<feBlend mode="normal" in="SourceGraphic" in2="effect2_dropShadow_1_2" result="shape"/>
</filter>
<filter id="filter6_f_1_2" x="2.77777" y="4.99948" width="39.9493" height="41.6458" filterUnits="userSpaceOnUse" color-interpolation-filters="sRGB">
<feFlood flood-opacity="0" result="BackgroundImageFix"/>
<feBlend mode="normal" in="SourceGraphic" in2="BackgroundImageFix" result="shape"/>
<feGaussianBlur stdDeviation="2" result="effect1_foregroundBlur_1_2"/>
</filter>
<filter id="filter7_i_1_2" x="19.5661" y="23.4109" width="6.46282" height="8.22461" filterUnits="userSpaceOnUse" color-interpolation-filters="sRGB">
<feFlood flood-opacity="0" result="BackgroundImageFix"/>
<feBlend mode="normal" in="SourceGraphic" in2="BackgroundImageFix" result="shape"/>
<feColorMatrix in="SourceAlpha" type="matrix" values="0 0 0 0 0 0 0 0 0 0 0 0 0 0 0 0 0 0 127 0" result="hardAlpha"/>
<feOffset dy="4"/>
<feGaussianBlur stdDeviation="2"/>
<feComposite in2="hardAlpha" operator="arithmetic" k2="-1" k3="1"/>
<feColorMatrix type="matrix" values="0 0 0 0 0 0 0 0 0 0 0 0 0 0 0 0 0 0 0.25 0"/>
<feBlend mode="normal" in2="shape" result="effect1_innerShadow_1_2"/>
</filter>
<filter id="filter8_i_1_2" x="20.9849" y="21.19" width="5.65572" height="8.62933" filterUnits="userSpaceOnUse" color-interpolation-filters="sRGB">
<feFlood flood-opacity="0" result="BackgroundImageFix"/>
<feBlend mode="normal" in="SourceGraphic" in2="BackgroundImageFix" result="shape"/>
<feColorMatrix in="SourceAlpha" type="matrix" values="0 0 0 0 0 0 0 0 0 0 0 0 0 0 0 0 0 0 127 0" result="hardAlpha"/>
<feOffset dy="4"/>
<feGaussianBlur stdDeviation="2"/>
<feComposite in2="hardAlpha" operator="arithmetic" k2="-1" k3="1"/>
<feColorMatrix type="matrix" values="0 0 0 0 0 0 0 0 0 0 0 0 0 0 0 0 0 0 0.25 0"/>
<feBlend mode="normal" in2="shape" result="effect1_innerShadow_1_2"/>
</filter>
<filter id="filter9_i_1_2" x="16.7211" y="27.8867" width="5.67467" height="7.90942" filterUnits="userSpaceOnUse" color-interpolation-filters="sRGB">
<feFlood flood-opacity="0" result="BackgroundImageFix"/>
<feBlend mode="normal" in="SourceGraphic" in2="BackgroundImageFix" result="shape"/>
<feColorMatrix in="SourceAlpha" type="matrix" values="0 0 0 0 0 0 0 0 0 0 0 0 0 0 0 0 0 0 127 0" result="hardAlpha"/>
<feOffset dy="4"/>
<feGaussianBlur stdDeviation="2"/>
<feComposite in2="hardAlpha" operator="arithmetic" k2="-1" k3="1"/>
<feColorMatrix type="matrix" values="0 0 0 0 0 0 0 0 0 0 0 0 0 0 0 0 0 0 0.25 0"/>
<feBlend mode="normal" in2="shape" result="effect1_innerShadow_1_2"/>
</filter>
<filter id="filter10_i_1_2" x="18.4093" y="24.3193" width="5.67901" height="9.90073" filterUnits="userSpaceOnUse" color-interpolation-filters="sRGB">
<feFlood flood-opacity="0" result="BackgroundImageFix"/>
<feBlend mode="normal" in="SourceGraphic" in2="BackgroundImageFix" result="shape"/>
<feColorMatrix in="SourceAlpha" type="matrix" values="0 0 0 0 0 0 0 0 0 0 0 0 0 0 0 0 0 0 127 0" result="hardAlpha"/>
<feOffset dy="4"/>
<feGaussianBlur stdDeviation="2"/>
<feComposite in2="hardAlpha" operator="arithmetic" k2="-1" k3="1"/>
<feColorMatrix type="matrix" values="0 0 0 0 0 0 0 0 0 0 0 0 0 0 0 0 0 0 0.25 0"/>
<feBlend mode="normal" in2="shape" result="effect1_innerShadow_1_2"/>
</filter>
<linearGradient id="paint0_linear_1_2" x1="47" y1="2" x2="3" y2="47.5" gradientUnits="userSpaceOnUse">
<stop stop-color="#089741" stop-opacity="0.7"/>
<stop offset="0.5625" stop-color="#343A36" stop-opacity="0.817187"/>
<stop offset="1" stop-color="#363636"/>
</linearGradient>
<clipPath id="clip0_1_2">
<rect width="50" height="50" rx="5" fill="white"/>
</clipPath>
</defs>
</svg>
