<svg width="50" height="50" viewBox="0 0 50 50" fill="none" xmlns="http://www.w3.org/2000/svg">
<g clip-path="url(#clip0_1_2)">
<rect width="50" height="50" rx="5" fill="url(#paint0_linear_1_2)" style="mix-blend-mode:multiply"/>
<g filter="url(#filter0_f_1_2)">
<path d="M3.43852 38.8741L9.60335 40.2662L10.6662 35.155L16.3057 38.1806L16.3529 31.0343L20.4421 35.0909L21.0039 27.9413L27.6653 32.0547L31.0821 23.2814V23.2814C35.0247 24.3927 35.4707 29.8029 31.7633 31.5449L7.8166 42.797C5.2653 43.9958 2.52584 41.5412 3.43852 38.8741V38.8741Z" fill="#539CD1"/>
</g>
<g filter="url(#filter1_df_1_2)">
<path d="M14.4633 4.66059L19.993 2.49622L27.2942 3.22584L33.4232 6.70626L39.2031 12.4159L38.9798 16.3338L37.8829 19.9146L31.902 23.3306L26.3674 22.8859L19.6567 23.1209L0.132636 34.1509L0.021208 30.9322L2.63991 25.4647L4.90497 22.587L5.23169 16.2603L7.69251 10.0157L14.4633 4.66059Z" fill="#539CD1"/>
</g>
<g filter="url(#filter2_f_1_2)">
<path d="M34.8825 28.2917C34.3154 27.6128 34.0769 26.7183 34.2306 25.8472L34.5324 24.1377C34.6853 23.271 34.4448 22.3811 33.876 21.7095L33.584 21.3647C33.0468 20.7303 32.9089 19.849 33.2269 19.0809V19.0809C33.8189 17.6507 35.6559 17.25 36.7896 18.3039L41.7829 22.9453C42.2214 23.353 42.528 23.8825 42.6631 24.4658L43.2677 27.0768C43.3463 27.4159 43.4832 27.7386 43.6723 28.0307L44.2756 28.9623C44.4355 29.2092 44.5582 29.4782 44.6398 29.7608L45.113 31.3995L45.6824 32.754C45.7632 32.9462 45.8638 33.1295 45.9826 33.3008L46.3969 33.8984C46.4996 34.0465 46.6155 34.1851 46.7431 34.3125L47.7734 35.3408L48.2346 35.7623C48.8495 36.3242 49.203 37.1165 49.2106 37.9494L49.2117 38.0624L49.3459 40.0336L49.3615 41.7429C49.3677 42.4204 49.603 43.0758 50.0292 43.6025L50.1779 43.7864C50.4097 44.0727 50.5866 44.3993 50.7001 44.7498L54.0052 54.9639C54.3507 56.0317 54.0713 57.2031 53.281 58L52.7042 58.5815C52.2252 59.0645 51.4142 58.9387 51.1041 58.3332L43.2941 43.0845C43.1739 42.8498 43.0852 42.6003 43.0302 42.3424L41.9555 37.3017C41.8537 36.8242 41.6369 36.3788 41.324 36.0041L34.8825 28.2917Z" fill="#B67754"/>
</g>
<path d="M32.8825 27.2917C32.3154 26.6128 32.0769 25.7183 32.2306 24.8472L32.5324 23.1377C32.6853 22.271 32.4448 21.3811 31.876 20.7095L31.584 20.3647C31.0468 19.7303 30.9089 18.849 31.2269 18.0809V18.0809C31.8189 16.6507 33.6559 16.25 34.7896 17.3039L39.7829 21.9453C40.2214 22.353 40.528 22.8825 40.6631 23.4658L41.2677 26.0768C41.3463 26.4159 41.4832 26.7386 41.6723 27.0307L42.2756 27.9623C42.4355 28.2092 42.5582 28.4782 42.6398 28.7608L43.113 30.3995L43.6824 31.754C43.7632 31.9462 43.8638 32.1295 43.9826 32.3008L44.3969 32.8984C44.4996 33.0465 44.6155 33.1851 44.7431 33.3125L45.7734 34.3408L46.2346 34.7623C46.8495 35.3242 47.203 36.1165 47.2106 36.9494L47.2117 37.0624L47.3459 39.0336L47.3615 40.7429C47.3677 41.4204 47.603 42.0758 48.0292 42.6025L48.1779 42.7864C48.4097 43.0727 48.5866 43.3993 48.7001 43.7498L52.0052 53.9639C52.3507 55.0317 52.0713 56.2031 51.281 57L50.7042 57.5815C50.2252 58.0645 49.4142 57.9387 49.1041 57.3332L41.2941 42.0845C41.1739 41.8498 41.0852 41.6003 41.0302 41.3424L39.9555 36.3017C39.8537 35.8242 39.6369 35.3788 39.324 35.0041L32.8825 27.2917Z" fill="#DD956D"/>
<g filter="url(#filter3_i_1_2)">
<path d="M47.1615 37.4334L40.5047 39.0953L40.2604 37.621L47.2521 36.9537L47.1615 37.4334Z" fill="#DD956D"/>
<path d="M47.1615 37.4334L40.5047 39.0953L40.2604 37.621L47.2521 36.9537L47.1615 37.4334Z" fill="#DD956D"/>
</g>
<g filter="url(#filter4_i_1_2)">
<path d="M18.1091 8.32295L22.8494 6.41002L29.0033 6.78652L34.0851 9.42278L38.8065 13.8728L38.5029 17.0489L37.4703 19.9779L32.3118 22.9167L27.6437 22.7189L21.9611 23.1056L5.12506 32.6007L5.12506 30L7.5 25.5L9.5 23.1056L9.96158 17.9776L12.2257 12.8536L18.1091 8.32295Z" fill="#DDDADA"/>
</g>
<path d="M33.1274 27.5725L40.9769 23.6915L41.3038 25.9297L34.4627 29.659L33.1274 27.5725Z" fill="#56270D"/>
<path d="M35.5524 30.4043L42 27L42.5087 27.9944L42.763 28.4915L43.0363 29.4764L37.068 32.3617L36.3102 31.383L35.5524 30.4043Z" fill="#56270D"/>
<path d="M5.47646 29.8439L8.14428 25.5067L9.82838 23.5L10.0291 25.8391L5.47646 29.8439Z" fill="#262121"/>
<path d="M11.5977 19.211L15.5838 12.4639L18.1165 9.94084L22.7772 10.1282L23.2801 14.7686L20.7419 16.6852L18.3935 18.0183L13.1784 19.5311L11.5977 19.211Z" fill="#262121"/>
<path d="M14.4001 16.7542L16.7818 12.7227L18.2951 11.2151L21.08 11.327L21.3805 14.0998L19.8639 15.245L18.4607 16.0415L15.3445 16.9454L14.4001 16.7542Z" fill="#FDF2F2"/>
<g filter="url(#filter5_bi_1_2)">
<path d="M20 14C20 15.2 18.8592 15.6 18.0986 16C17.0485 16 15.4367 15.6 16.1972 14.4C16.5775 13.6 16.9578 12.8 18.0986 12C19.2394 12 20 12.8954 20 14Z" fill="#539CD1"/>
</g>
<path d="M35.6667 14.5V13L36.5 14L37 17.3333L35.6667 18.6667L34.6667 20L33 18L31.6667 20L31 17.6667L31.6667 18" stroke="#343131"/>
<path d="M29.1289 15.4725L28.3314 15.8407L28.6787 15.0788L29.0245 12.5216L30.5951 12.5706L31.9754 12.4171L31.7118 14.5706L33.6872 14.2392L32.6505 15.9754L32.4725 15.3804" stroke="#343131"/>
<path d="M13.4176 23.9493L12 26.6546L16.0257 24.2332L16.0257 21.3625L20 21.8625L24 19.3625" stroke="#343131"/>
<path d="M5.04971 32.5705L22.0621 23L22.5 24.5L20.5 27.5L20.5 26L19.5 25L19.5 26L18.5 25.5L18.5 26.5L17.5 26L17 27L16 27L15.5 28L14.5 27.5L14 29L13 28.5L13 29.5L12 29L12 30L11 29.5L11 31L9.5 30.5L9.5 31L9.5 31.5L8 31.1611L8 32.5L6.5 32L6.5 33.5L5.04971 32.5705Z" fill="white"/>
<g filter="url(#filter6_i_1_2)">
<path d="M40 36.5L45.5 34L46.5 35L40 37V36.5Z" fill="#DD956D"/>
<path d="M40 36.5L45.5 34L46.5 35L40 37V36.5Z" fill="#DD956D"/>
</g>
<g filter="url(#filter7_i_1_2)">
<path d="M48.4005 42.567L42.6651 44.2415L42.1651 43.2415L48.486 42.1137L48.4005 42.567Z" fill="#DD956D"/>
<path d="M48.4005 42.567L42.6651 44.2415L42.1651 43.2415L48.486 42.1137L48.4005 42.567Z" fill="#DD956D"/>
</g>
<g filter="url(#filter8_i_1_2)">
<path d="M41 41.4286L47.5 38V39V40L41 42V41.4286Z" fill="#DD956D"/>
<path d="M41 41.4286L47.5 38V39V40L41 42V41.4286Z" fill="#DD956D"/>
</g>
<g filter="url(#filter9_bd_1_2)">
<rect x="17" y="14" width="1" height="1" rx="0.5" fill="#070707"/>
</g>
</g>
<defs>
<filter id="filter0_f_1_2" x="1.25912" y="21.2814" width="35.0479" height="23.828" filterUnits="userSpaceOnUse" color-interpolation-filters="sRGB">
<feFlood flood-opacity="0" result="BackgroundImageFix"/>
<feBlend mode="normal" in="SourceGraphic" in2="BackgroundImageFix" result="shape"/>
<feGaussianBlur stdDeviation="1" result="effect1_foregroundBlur_1_2"/>
</filter>
<filter id="filter1_df_1_2" x="-3.97879" y="-1.50378" width="47.1819" height="43.6547" filterUnits="userSpaceOnUse" color-interpolation-filters="sRGB">
<feFlood flood-opacity="0" result="BackgroundImageFix"/>
<feColorMatrix in="SourceAlpha" type="matrix" values="0 0 0 0 0 0 0 0 0 0 0 0 0 0 0 0 0 0 127 0" result="hardAlpha"/>
<feOffset dy="4"/>
<feGaussianBlur stdDeviation="2"/>
<feComposite in2="hardAlpha" operator="out"/>
<feColorMatrix type="matrix" values="0 0 0 0 0 0 0 0 0 0 0 0 0 0 0 0 0 0 0.25 0"/>
<feBlend mode="normal" in2="BackgroundImageFix" result="effect1_dropShadow_1_2"/>
<feBlend mode="normal" in="SourceGraphic" in2="effect1_dropShadow_1_2" result="shape"/>
<feGaussianBlur stdDeviation="2" result="effect2_foregroundBlur_1_2"/>
</filter>
<filter id="filter2_f_1_2" x="29.0581" y="13.7092" width="29.0929" height="49.1683" filterUnits="userSpaceOnUse" color-interpolation-filters="sRGB">
<feFlood flood-opacity="0" result="BackgroundImageFix"/>
<feBlend mode="normal" in="SourceGraphic" in2="BackgroundImageFix" result="shape"/>
<feGaussianBlur stdDeviation="2" result="effect1_foregroundBlur_1_2"/>
</filter>
<filter id="filter3_i_1_2" x="40.2604" y="36.9536" width="6.99168" height="6.14166" filterUnits="userSpaceOnUse" color-interpolation-filters="sRGB">
<feFlood flood-opacity="0" result="BackgroundImageFix"/>
<feBlend mode="normal" in="SourceGraphic" in2="BackgroundImageFix" result="shape"/>
<feColorMatrix in="SourceAlpha" type="matrix" values="0 0 0 0 0 0 0 0 0 0 0 0 0 0 0 0 0 0 127 0" result="hardAlpha"/>
<feOffset dy="4"/>
<feGaussianBlur stdDeviation="2"/>
<feComposite in2="hardAlpha" operator="arithmetic" k2="-1" k3="1"/>
<feColorMatrix type="matrix" values="0 0 0 0 0 0 0 0 0 0 0 0 0 0 0 0 0 0 0.25 0"/>
<feBlend mode="normal" in2="shape" result="effect1_innerShadow_1_2"/>
</filter>
<filter id="filter4_i_1_2" x="5.12506" y="6.41003" width="33.6814" height="30.1906" filterUnits="userSpaceOnUse" color-interpolation-filters="sRGB">
<feFlood flood-opacity="0" result="BackgroundImageFix"/>
<feBlend mode="normal" in="SourceGraphic" in2="BackgroundImageFix" result="shape"/>
<feColorMatrix in="SourceAlpha" type="matrix" values="0 0 0 0 0 0 0 0 0 0 0 0 0 0 0 0 0 0 127 0" result="hardAlpha"/>
<feOffset dy="4"/>
<feGaussianBlur stdDeviation="2"/>
<feComposite in2="hardAlpha" operator="arithmetic" k2="-1" k3="1"/>
<feColorMatrix type="matrix" values="0 0 0 0 0 0 0 0 0 0 0 0 0 0 0 0 0 0 0.25 0"/>
<feBlend mode="normal" in2="shape" result="effect1_innerShadow_1_2"/>
</filter>
<filter id="filter5_bi_1_2" x="12" y="8" width="12" height="12" filterUnits="userSpaceOnUse" color-interpolation-filters="sRGB">
<feFlood flood-opacity="0" result="BackgroundImageFix"/>
<feGaussianBlur in="BackgroundImageFix" stdDeviation="2"/>
<feComposite in2="SourceAlpha" operator="in" result="effect1_backgroundBlur_1_2"/>
<feBlend mode="normal" in="SourceGraphic" in2="effect1_backgroundBlur_1_2" result="shape"/>
<feColorMatrix in="SourceAlpha" type="matrix" values="0 0 0 0 0 0 0 0 0 0 0 0 0 0 0 0 0 0 127 0" result="hardAlpha"/>
<feOffset dy="4"/>
<feGaussianBlur stdDeviation="2"/>
<feComposite in2="hardAlpha" operator="arithmetic" k2="-1" k3="1"/>
<feColorMatrix type="matrix" values="0 0 0 0 0 0 0 0 0 0 0 0 0 0 0 0 0 0 0.25 0"/>
<feBlend mode="normal" in2="shape" result="effect2_innerShadow_1_2"/>
</filter>
<filter id="filter6_i_1_2" x="40" y="34" width="6.5" height="7" filterUnits="userSpaceOnUse" color-interpolation-filters="sRGB">
<feFlood flood-opacity="0" result="BackgroundImageFix"/>
<feBlend mode="normal" in="SourceGraphic" in2="BackgroundImageFix" result="shape"/>
<feColorMatrix in="SourceAlpha" type="matrix" values="0 0 0 0 0 0 0 0 0 0 0 0 0 0 0 0 0 0 127 0" result="hardAlpha"/>
<feOffset dy="4"/>
<feGaussianBlur stdDeviation="2"/>
<feComposite in2="hardAlpha" operator="arithmetic" k2="-1" k3="1"/>
<feColorMatrix type="matrix" values="0 0 0 0 0 0 0 0 0 0 0 0 0 0 0 0 0 0 0.25 0"/>
<feBlend mode="normal" in2="shape" result="effect1_innerShadow_1_2"/>
</filter>
<filter id="filter7_i_1_2" x="42.1651" y="42.1137" width="6.32093" height="6.12778" filterUnits="userSpaceOnUse" color-interpolation-filters="sRGB">
<feFlood flood-opacity="0" result="BackgroundImageFix"/>
<feBlend mode="normal" in="SourceGraphic" in2="BackgroundImageFix" result="shape"/>
<feColorMatrix in="SourceAlpha" type="matrix" values="0 0 0 0 0 0 0 0 0 0 0 0 0 0 0 0 0 0 127 0" result="hardAlpha"/>
<feOffset dy="4"/>
<feGaussianBlur stdDeviation="2"/>
<feComposite in2="hardAlpha" operator="arithmetic" k2="-1" k3="1"/>
<feColorMatrix type="matrix" values="0 0 0 0 0 0 0 0 0 0 0 0 0 0 0 0 0 0 0.25 0"/>
<feBlend mode="normal" in2="shape" result="effect1_innerShadow_1_2"/>
</filter>
<filter id="filter8_i_1_2" x="41" y="38" width="6.5" height="8" filterUnits="userSpaceOnUse" color-interpolation-filters="sRGB">
<feFlood flood-opacity="0" result="BackgroundImageFix"/>
<feBlend mode="normal" in="SourceGraphic" in2="BackgroundImageFix" result="shape"/>
<feColorMatrix in="SourceAlpha" type="matrix" values="0 0 0 0 0 0 0 0 0 0 0 0 0 0 0 0 0 0 127 0" result="hardAlpha"/>
<feOffset dy="4"/>
<feGaussianBlur stdDeviation="2"/>
<feComposite in2="hardAlpha" operator="arithmetic" k2="-1" k3="1"/>
<feColorMatrix type="matrix" values="0 0 0 0 0 0 0 0 0 0 0 0 0 0 0 0 0 0 0.25 0"/>
<feBlend mode="normal" in2="shape" result="effect1_innerShadow_1_2"/>
</filter>
<filter id="filter9_bd_1_2" x="13" y="10" width="9" height="13" filterUnits="userSpaceOnUse" color-interpolation-filters="sRGB">
<feFlood flood-opacity="0" result="BackgroundImageFix"/>
<feGaussianBlur in="BackgroundImageFix" stdDeviation="2"/>
<feComposite in2="SourceAlpha" operator="in" result="effect1_backgroundBlur_1_2"/>
<feColorMatrix in="SourceAlpha" type="matrix" values="0 0 0 0 0 0 0 0 0 0 0 0 0 0 0 0 0 0 127 0" result="hardAlpha"/>
<feOffset dy="4"/>
<feGaussianBlur stdDeviation="2"/>
<feComposite in2="hardAlpha" operator="out"/>
<feColorMatrix type="matrix" values="0 0 0 0 0 0 0 0 0 0 0 0 0 0 0 0 0 0 0.25 0"/>
<feBlend mode="normal" in2="effect1_backgroundBlur_1_2" result="effect2_dropShadow_1_2"/>
<feBlend mode="normal" in="SourceGraphic" in2="effect2_dropShadow_1_2" result="shape"/>
</filter>
<linearGradient id="paint0_linear_1_2" x1="47" y1="2" x2="3" y2="47.5" gradientUnits="userSpaceOnUse">
<stop stop-color="#211D1D"/>
<stop offset="1" stop-color="#363636"/>
</linearGradient>
<clipPath id="clip0_1_2">
<rect width="50" height="50" rx="5" fill="white"/>
</clipPath>
</defs>
</svg>
